<?xml version="1.0" encoding="utf-8" standalone="no"?>
<!DOCTYPE svg PUBLIC "-//W3C//DTD SVG 1.1//EN"
  "http://www.w3.org/Graphics/SVG/1.1/DTD/svg11.dtd">
<!-- Created with matplotlib (https://matplotlib.org/) -->
<svg height="457.490625pt" version="1.1" viewBox="0 0 893.821875 457.490625" width="893.821875pt" xmlns="http://www.w3.org/2000/svg" xmlns:xlink="http://www.w3.org/1999/xlink">
 <defs>
  <style type="text/css">
*{stroke-linecap:butt;stroke-linejoin:round;}
  </style>
 </defs>
 <g id="figure_1">
  <g id="patch_1">
   <path d="M 0 457.490625 
L 893.821875 457.490625 
L 893.821875 0 
L 0 0 
z
" style="fill:#ffffff;"/>
  </g>
  <g id="axes_1">
   <g id="patch_2">
    <path d="M 49.621875 428.146875 
L 886.621875 428.146875 
L 886.621875 20.446875 
L 49.621875 20.446875 
z
" style="fill:#ffffff;"/>
   </g>
   <g id="matplotlib.axis_1">
    <g id="xtick_1">
     <g id="line2d_1">
      <path clip-path="url(#p4f7bc6d519)" d="M 49.621875 428.146875 
L 49.621875 20.446875 
" style="fill:none;stroke:#cccccc;stroke-linecap:round;stroke-width:0.8;"/>
     </g>
     <g id="line2d_2"/>
     <g id="text_1">
      <!-- 0.00 -->
      <defs>
       <path d="M 51.703125 34.421875 
Q 51.703125 24.515625 49.828125 17.75 
Q 47.953125 10.984375 44.703125 6.8125 
Q 41.453125 2.640625 37.0625 0.828125 
Q 32.671875 -0.984375 27.6875 -0.984375 
Q 22.65625 -0.984375 18.3125 0.828125 
Q 13.96875 2.640625 10.765625 6.78125 
Q 7.5625 10.9375 5.734375 17.703125 
Q 3.90625 24.46875 3.90625 34.421875 
Q 3.90625 44.828125 5.734375 51.640625 
Q 7.5625 58.453125 10.78125 62.5 
Q 14.015625 66.546875 18.40625 68.1875 
Q 22.796875 69.828125 27.984375 69.828125 
Q 32.90625 69.828125 37.21875 68.1875 
Q 41.546875 66.546875 44.765625 62.5 
Q 48 58.453125 49.84375 51.640625 
Q 51.703125 44.828125 51.703125 34.421875 
z
M 42.78125 34.421875 
Q 42.78125 42.625 41.796875 48.0625 
Q 40.828125 53.515625 38.921875 56.765625 
Q 37.015625 60.015625 34.25 61.359375 
Q 31.5 62.703125 27.984375 62.703125 
Q 24.265625 62.703125 21.4375 61.328125 
Q 18.609375 59.96875 16.671875 56.71875 
Q 14.75 53.46875 13.765625 48.015625 
Q 12.796875 42.578125 12.796875 34.421875 
Q 12.796875 26.515625 13.796875 21.09375 
Q 14.796875 15.671875 16.71875 12.375 
Q 18.65625 9.078125 21.4375 7.640625 
Q 24.21875 6.203125 27.78125 6.203125 
Q 31.25 6.203125 34.03125 7.640625 
Q 36.8125 9.078125 38.734375 12.375 
Q 40.671875 15.671875 41.71875 21.09375 
Q 42.78125 26.515625 42.78125 34.421875 
z
" id="LiberationSans-48"/>
       <path d="M 9.125 0 
L 9.125 10.6875 
L 18.65625 10.6875 
L 18.65625 0 
z
" id="LiberationSans-46"/>
      </defs>
      <g style="fill:#262626;" transform="translate(30.160938 446.140625)scale(0.2 -0.2)">
       <use xlink:href="#LiberationSans-48"/>
       <use x="55.615234" xlink:href="#LiberationSans-46"/>
       <use x="83.398438" xlink:href="#LiberationSans-48"/>
       <use x="139.013672" xlink:href="#LiberationSans-48"/>
      </g>
     </g>
    </g>
    <g id="xtick_2">
     <g id="line2d_3">
      <path clip-path="url(#p4f7bc6d519)" d="M 201.803693 428.146875 
L 201.803693 20.446875 
" style="fill:none;stroke:#cccccc;stroke-linecap:round;stroke-width:0.8;"/>
     </g>
     <g id="line2d_4"/>
     <g id="text_2">
      <!-- 0.01 -->
      <defs>
       <path d="M 7.625 0 
L 7.625 7.46875 
L 25.140625 7.46875 
L 25.140625 60.40625 
L 9.625 49.3125 
L 9.625 57.625 
L 25.875 68.796875 
L 33.984375 68.796875 
L 33.984375 7.46875 
L 50.734375 7.46875 
L 50.734375 0 
z
" id="LiberationSans-49"/>
      </defs>
      <g style="fill:#262626;" transform="translate(182.342756 446.140625)scale(0.2 -0.2)">
       <use xlink:href="#LiberationSans-48"/>
       <use x="55.615234" xlink:href="#LiberationSans-46"/>
       <use x="83.398438" xlink:href="#LiberationSans-48"/>
       <use x="139.013672" xlink:href="#LiberationSans-49"/>
      </g>
     </g>
    </g>
    <g id="xtick_3">
     <g id="line2d_5">
      <path clip-path="url(#p4f7bc6d519)" d="M 353.985511 428.146875 
L 353.985511 20.446875 
" style="fill:none;stroke:#cccccc;stroke-linecap:round;stroke-width:0.8;"/>
     </g>
     <g id="line2d_6"/>
     <g id="text_3">
      <!-- 0.02 -->
      <defs>
       <path d="M 5.03125 0 
L 5.03125 6.203125 
Q 7.515625 11.921875 11.109375 16.28125 
Q 14.703125 20.65625 18.65625 24.1875 
Q 22.609375 27.734375 26.484375 30.765625 
Q 30.375 33.796875 33.5 36.8125 
Q 36.625 39.84375 38.546875 43.15625 
Q 40.484375 46.484375 40.484375 50.6875 
Q 40.484375 53.609375 39.59375 55.828125 
Q 38.71875 58.0625 37.0625 59.5625 
Q 35.40625 61.078125 33.078125 61.828125 
Q 30.765625 62.59375 27.9375 62.59375 
Q 25.296875 62.59375 22.96875 61.859375 
Q 20.65625 61.140625 18.84375 59.671875 
Q 17.046875 58.203125 15.890625 56.03125 
Q 14.75 53.859375 14.40625 50.984375 
L 5.421875 51.8125 
Q 5.859375 55.515625 7.46875 58.78125 
Q 9.078125 62.0625 11.90625 64.53125 
Q 14.75 67 18.71875 68.40625 
Q 22.703125 69.828125 27.9375 69.828125 
Q 33.0625 69.828125 37.0625 68.609375 
Q 41.0625 67.390625 43.8125 64.984375 
Q 46.578125 62.59375 48.046875 59.078125 
Q 49.515625 55.5625 49.515625 50.984375 
Q 49.515625 47.515625 48.265625 44.390625 
Q 47.015625 41.265625 44.9375 38.421875 
Q 42.875 35.59375 40.140625 32.953125 
Q 37.40625 30.328125 34.421875 27.8125 
Q 31.453125 25.296875 28.421875 22.828125 
Q 25.390625 20.359375 22.71875 17.859375 
Q 20.0625 15.375 17.96875 12.8125 
Q 15.875 10.25 14.703125 7.46875 
L 50.59375 7.46875 
L 50.59375 0 
z
" id="LiberationSans-50"/>
      </defs>
      <g style="fill:#262626;" transform="translate(334.524574 446.140625)scale(0.2 -0.2)">
       <use xlink:href="#LiberationSans-48"/>
       <use x="55.615234" xlink:href="#LiberationSans-46"/>
       <use x="83.398438" xlink:href="#LiberationSans-48"/>
       <use x="139.013672" xlink:href="#LiberationSans-50"/>
      </g>
     </g>
    </g>
    <g id="xtick_4">
     <g id="line2d_7">
      <path clip-path="url(#p4f7bc6d519)" d="M 506.16733 428.146875 
L 506.16733 20.446875 
" style="fill:none;stroke:#cccccc;stroke-linecap:round;stroke-width:0.8;"/>
     </g>
     <g id="line2d_8"/>
     <g id="text_4">
      <!-- 0.03 -->
      <defs>
       <path d="M 51.21875 19 
Q 51.21875 14.265625 49.671875 10.546875 
Q 48.140625 6.84375 45.1875 4.265625 
Q 42.234375 1.703125 37.859375 0.359375 
Q 33.5 -0.984375 27.875 -0.984375 
Q 21.484375 -0.984375 17.109375 0.609375 
Q 12.75 2.203125 9.90625 4.8125 
Q 7.078125 7.421875 5.65625 10.765625 
Q 4.25 14.109375 3.8125 17.671875 
L 12.890625 18.5 
Q 13.28125 15.765625 14.328125 13.515625 
Q 15.375 11.28125 17.1875 9.671875 
Q 19 8.0625 21.625 7.171875 
Q 24.265625 6.296875 27.875 6.296875 
Q 34.515625 6.296875 38.296875 9.5625 
Q 42.09375 12.84375 42.09375 19.28125 
Q 42.09375 23.09375 40.40625 25.40625 
Q 38.71875 27.734375 36.203125 29.03125 
Q 33.6875 30.328125 30.734375 30.765625 
Q 27.78125 31.203125 25.296875 31.203125 
L 20.3125 31.203125 
L 20.3125 38.8125 
L 25.09375 38.8125 
Q 27.59375 38.8125 30.265625 39.328125 
Q 32.953125 39.84375 35.171875 41.1875 
Q 37.40625 42.53125 38.84375 44.828125 
Q 40.28125 47.125 40.28125 50.6875 
Q 40.28125 56.203125 37.03125 59.390625 
Q 33.796875 62.59375 27.390625 62.59375 
Q 21.578125 62.59375 17.984375 59.609375 
Q 14.40625 56.640625 13.8125 51.21875 
L 4.984375 51.90625 
Q 5.515625 56.453125 7.46875 59.8125 
Q 9.421875 63.1875 12.421875 65.40625 
Q 15.4375 67.625 19.28125 68.71875 
Q 23.140625 69.828125 27.484375 69.828125 
Q 33.25 69.828125 37.390625 68.375 
Q 41.546875 66.9375 44.1875 64.46875 
Q 46.828125 62.015625 48.0625 58.6875 
Q 49.3125 55.375 49.3125 51.609375 
Q 49.3125 48.578125 48.484375 45.9375 
Q 47.65625 43.3125 45.890625 41.203125 
Q 44.140625 39.109375 41.421875 37.59375 
Q 38.71875 36.078125 34.90625 35.296875 
L 34.90625 35.109375 
Q 39.0625 34.671875 42.140625 33.21875 
Q 45.21875 31.78125 47.21875 29.625 
Q 49.21875 27.484375 50.21875 24.75 
Q 51.21875 22.015625 51.21875 19 
z
" id="LiberationSans-51"/>
      </defs>
      <g style="fill:#262626;" transform="translate(486.706392 446.140625)scale(0.2 -0.2)">
       <use xlink:href="#LiberationSans-48"/>
       <use x="55.615234" xlink:href="#LiberationSans-46"/>
       <use x="83.398438" xlink:href="#LiberationSans-48"/>
       <use x="139.013672" xlink:href="#LiberationSans-51"/>
      </g>
     </g>
    </g>
    <g id="xtick_5">
     <g id="line2d_9">
      <path clip-path="url(#p4f7bc6d519)" d="M 658.349148 428.146875 
L 658.349148 20.446875 
" style="fill:none;stroke:#cccccc;stroke-linecap:round;stroke-width:0.8;"/>
     </g>
     <g id="line2d_10"/>
     <g id="text_5">
      <!-- 0.04 -->
      <defs>
       <path d="M 43.015625 15.578125 
L 43.015625 0 
L 34.71875 0 
L 34.71875 15.578125 
L 2.296875 15.578125 
L 2.296875 22.40625 
L 33.796875 68.796875 
L 43.015625 68.796875 
L 43.015625 22.515625 
L 52.6875 22.515625 
L 52.6875 15.578125 
z
M 34.71875 58.890625 
Q 34.625 58.640625 34.234375 57.9375 
Q 33.84375 57.234375 33.34375 56.34375 
Q 32.859375 55.46875 32.34375 54.5625 
Q 31.84375 53.65625 31.453125 53.078125 
L 13.8125 27.09375 
Q 13.578125 26.703125 13.109375 26.0625 
Q 12.640625 25.4375 12.15625 24.78125 
Q 11.671875 24.125 11.171875 23.484375 
Q 10.6875 22.859375 10.40625 22.515625 
L 34.71875 22.515625 
z
" id="LiberationSans-52"/>
      </defs>
      <g style="fill:#262626;" transform="translate(638.88821 446.140625)scale(0.2 -0.2)">
       <use xlink:href="#LiberationSans-48"/>
       <use x="55.615234" xlink:href="#LiberationSans-46"/>
       <use x="83.398438" xlink:href="#LiberationSans-48"/>
       <use x="139.013672" xlink:href="#LiberationSans-52"/>
      </g>
     </g>
    </g>
    <g id="xtick_6">
     <g id="line2d_11">
      <path clip-path="url(#p4f7bc6d519)" d="M 810.530966 428.146875 
L 810.530966 20.446875 
" style="fill:none;stroke:#cccccc;stroke-linecap:round;stroke-width:0.8;"/>
     </g>
     <g id="line2d_12"/>
     <g id="text_6">
      <!-- 0.05 -->
      <defs>
       <path d="M 51.421875 22.40625 
Q 51.421875 17.234375 49.859375 12.9375 
Q 48.296875 8.640625 45.21875 5.53125 
Q 42.140625 2.4375 37.578125 0.71875 
Q 33.015625 -0.984375 27 -0.984375 
Q 21.578125 -0.984375 17.546875 0.28125 
Q 13.53125 1.5625 10.734375 3.78125 
Q 7.953125 6 6.3125 8.984375 
Q 4.6875 11.96875 4 15.375 
L 12.890625 16.40625 
Q 13.421875 14.453125 14.390625 12.625 
Q 15.375 10.796875 17.0625 9.34375 
Q 18.75 7.90625 21.21875 7.046875 
Q 23.6875 6.203125 27.203125 6.203125 
Q 30.609375 6.203125 33.390625 7.25 
Q 36.1875 8.296875 38.15625 10.34375 
Q 40.140625 12.40625 41.203125 15.375 
Q 42.28125 18.359375 42.28125 22.21875 
Q 42.28125 25.390625 41.25 28.046875 
Q 40.234375 30.71875 38.328125 32.640625 
Q 36.421875 34.578125 33.65625 35.640625 
Q 30.90625 36.71875 27.390625 36.71875 
Q 25.203125 36.71875 23.34375 36.328125 
Q 21.484375 35.9375 19.890625 35.25 
Q 18.3125 34.578125 17.015625 33.671875 
Q 15.71875 32.765625 14.59375 31.78125 
L 6 31.78125 
L 8.296875 68.796875 
L 47.40625 68.796875 
L 47.40625 61.328125 
L 16.3125 61.328125 
L 14.984375 39.5 
Q 17.328125 41.3125 20.84375 42.59375 
Q 24.359375 43.890625 29.203125 43.890625 
Q 34.328125 43.890625 38.421875 42.328125 
Q 42.53125 40.765625 45.40625 37.90625 
Q 48.296875 35.0625 49.859375 31.109375 
Q 51.421875 27.15625 51.421875 22.40625 
z
" id="LiberationSans-53"/>
      </defs>
      <g style="fill:#262626;" transform="translate(791.070028 446.140625)scale(0.2 -0.2)">
       <use xlink:href="#LiberationSans-48"/>
       <use x="55.615234" xlink:href="#LiberationSans-46"/>
       <use x="83.398438" xlink:href="#LiberationSans-48"/>
       <use x="139.013672" xlink:href="#LiberationSans-53"/>
      </g>
     </g>
    </g>
   </g>
   <g id="matplotlib.axis_2">
    <g id="ytick_1">
     <g id="line2d_13">
      <path clip-path="url(#p4f7bc6d519)" d="M 49.621875 428.146875 
L 886.621875 428.146875 
" style="fill:none;stroke:#cccccc;stroke-linecap:round;stroke-width:0.8;"/>
     </g>
     <g id="line2d_14"/>
     <g id="text_7">
      <!-- 0.00 -->
      <g style="fill:#262626;" transform="translate(7.2 435.39375)scale(0.2 -0.2)">
       <use xlink:href="#LiberationSans-48"/>
       <use x="55.615234" xlink:href="#LiberationSans-46"/>
       <use x="83.398438" xlink:href="#LiberationSans-48"/>
       <use x="139.013672" xlink:href="#LiberationSans-48"/>
      </g>
     </g>
    </g>
    <g id="ytick_2">
     <g id="line2d_15">
      <path clip-path="url(#p4f7bc6d519)" d="M 49.621875 354.019602 
L 886.621875 354.019602 
" style="fill:none;stroke:#cccccc;stroke-linecap:round;stroke-width:0.8;"/>
     </g>
     <g id="line2d_16"/>
     <g id="text_8">
      <!-- 0.01 -->
      <g style="fill:#262626;" transform="translate(7.2 361.266477)scale(0.2 -0.2)">
       <use xlink:href="#LiberationSans-48"/>
       <use x="55.615234" xlink:href="#LiberationSans-46"/>
       <use x="83.398438" xlink:href="#LiberationSans-48"/>
       <use x="139.013672" xlink:href="#LiberationSans-49"/>
      </g>
     </g>
    </g>
    <g id="ytick_3">
     <g id="line2d_17">
      <path clip-path="url(#p4f7bc6d519)" d="M 49.621875 279.89233 
L 886.621875 279.89233 
" style="fill:none;stroke:#cccccc;stroke-linecap:round;stroke-width:0.8;"/>
     </g>
     <g id="line2d_18"/>
     <g id="text_9">
      <!-- 0.02 -->
      <g style="fill:#262626;" transform="translate(7.2 287.139205)scale(0.2 -0.2)">
       <use xlink:href="#LiberationSans-48"/>
       <use x="55.615234" xlink:href="#LiberationSans-46"/>
       <use x="83.398438" xlink:href="#LiberationSans-48"/>
       <use x="139.013672" xlink:href="#LiberationSans-50"/>
      </g>
     </g>
    </g>
    <g id="ytick_4">
     <g id="line2d_19">
      <path clip-path="url(#p4f7bc6d519)" d="M 49.621875 205.765057 
L 886.621875 205.765057 
" style="fill:none;stroke:#cccccc;stroke-linecap:round;stroke-width:0.8;"/>
     </g>
     <g id="line2d_20"/>
     <g id="text_10">
      <!-- 0.03 -->
      <g style="fill:#262626;" transform="translate(7.2 213.011932)scale(0.2 -0.2)">
       <use xlink:href="#LiberationSans-48"/>
       <use x="55.615234" xlink:href="#LiberationSans-46"/>
       <use x="83.398438" xlink:href="#LiberationSans-48"/>
       <use x="139.013672" xlink:href="#LiberationSans-51"/>
      </g>
     </g>
    </g>
    <g id="ytick_5">
     <g id="line2d_21">
      <path clip-path="url(#p4f7bc6d519)" d="M 49.621875 131.637784 
L 886.621875 131.637784 
" style="fill:none;stroke:#cccccc;stroke-linecap:round;stroke-width:0.8;"/>
     </g>
     <g id="line2d_22"/>
     <g id="text_11">
      <!-- 0.04 -->
      <g style="fill:#262626;" transform="translate(7.2 138.884659)scale(0.2 -0.2)">
       <use xlink:href="#LiberationSans-48"/>
       <use x="55.615234" xlink:href="#LiberationSans-46"/>
       <use x="83.398438" xlink:href="#LiberationSans-48"/>
       <use x="139.013672" xlink:href="#LiberationSans-52"/>
      </g>
     </g>
    </g>
    <g id="ytick_6">
     <g id="line2d_23">
      <path clip-path="url(#p4f7bc6d519)" d="M 49.621875 57.510511 
L 886.621875 57.510511 
" style="fill:none;stroke:#cccccc;stroke-linecap:round;stroke-width:0.8;"/>
     </g>
     <g id="line2d_24"/>
     <g id="text_12">
      <!-- 0.05 -->
      <g style="fill:#262626;" transform="translate(7.2 64.757386)scale(0.2 -0.2)">
       <use xlink:href="#LiberationSans-48"/>
       <use x="55.615234" xlink:href="#LiberationSans-46"/>
       <use x="83.398438" xlink:href="#LiberationSans-48"/>
       <use x="139.013672" xlink:href="#LiberationSans-53"/>
      </g>
     </g>
    </g>
   </g>
   <g id="PathCollection_1"/>
   <g id="PathCollection_2"/>
   <g id="PathCollection_3"/>
   <g id="PathCollection_4"/>
   <g id="LineCollection_1"/>
   <g id="LineCollection_2"/>
   <g id="LineCollection_3"/>
   <g id="LineCollection_4"/>
   <g id="LineCollection_5"/>
   <g id="LineCollection_6"/>
   <g id="LineCollection_7"/>
   <g id="LineCollection_8"/>
   <g id="line2d_25"/>
   <g id="line2d_26"/>
   <g id="line2d_27"/>
   <g id="line2d_28"/>
   <g id="patch_3">
    <path d="M 49.621875 428.146875 
L 49.621875 20.446875 
" style="fill:none;stroke:#cccccc;stroke-linecap:square;stroke-linejoin:miter;"/>
   </g>
   <g id="patch_4">
    <path d="M 886.621875 428.146875 
L 886.621875 20.446875 
" style="fill:none;stroke:#cccccc;stroke-linecap:square;stroke-linejoin:miter;"/>
   </g>
   <g id="patch_5">
    <path d="M 49.621875 428.146875 
L 886.621875 428.146875 
" style="fill:none;stroke:#cccccc;stroke-linecap:square;stroke-linejoin:miter;"/>
   </g>
   <g id="patch_6">
    <path d="M 49.621875 20.446875 
L 886.621875 20.446875 
" style="fill:none;stroke:#cccccc;stroke-linecap:square;stroke-linejoin:miter;"/>
   </g>
   <g id="text_13">
    <!-- Clearance -->
    <defs>
     <path d="M 38.8125 10.359375 
Q 42.875 10.359375 45.828125 11.5 
Q 48.78125 12.640625 50.953125 14.5 
Q 53.125 16.359375 54.5625 18.703125 
Q 56 21.046875 56.9375 23.4375 
L 69.484375 18.703125 
Q 67.96875 14.984375 65.53125 11.421875 
Q 63.09375 7.859375 59.421875 5.125 
Q 55.765625 2.390625 50.703125 0.703125 
Q 45.65625 -0.984375 38.8125 -0.984375 
Q 29.890625 -0.984375 23.34375 1.671875 
Q 16.796875 4.34375 12.515625 9.109375 
Q 8.25 13.875 6.171875 20.40625 
Q 4.109375 26.953125 4.109375 34.71875 
Q 4.109375 42.78125 6.171875 49.265625 
Q 8.25 55.765625 12.453125 60.328125 
Q 16.65625 64.890625 23.078125 67.359375 
Q 29.5 69.828125 38.1875 69.828125 
Q 44.921875 69.828125 49.96875 68.40625 
Q 55.03125 67 58.71875 64.421875 
Q 62.40625 61.859375 64.8125 58.375 
Q 67.234375 54.890625 68.609375 50.6875 
L 55.90625 47.21875 
Q 55.21875 49.421875 53.796875 51.4375 
Q 52.390625 53.46875 50.21875 55.03125 
Q 48.046875 56.59375 45.109375 57.546875 
Q 42.1875 58.5 38.484375 58.5 
Q 33.25 58.5 29.484375 56.8125 
Q 25.734375 55.125 23.3125 52 
Q 20.90625 48.875 19.75 44.5 
Q 18.609375 40.140625 18.609375 34.71875 
Q 18.609375 29.34375 19.75 24.875 
Q 20.90625 20.40625 23.34375 17.1875 
Q 25.78125 13.96875 29.609375 12.15625 
Q 33.453125 10.359375 38.8125 10.359375 
z
" id="LiberationSans-Bold-67"/>
     <path d="M 6.984375 0 
L 6.984375 72.46875 
L 20.703125 72.46875 
L 20.703125 0 
z
" id="LiberationSans-Bold-108"/>
     <path d="M 28.609375 -0.984375 
Q 22.90625 -0.984375 18.328125 0.703125 
Q 13.765625 2.390625 10.546875 5.828125 
Q 7.328125 9.28125 5.609375 14.46875 
Q 3.90625 19.671875 3.90625 26.65625 
Q 3.90625 34.234375 5.921875 39.40625 
Q 7.953125 44.578125 11.390625 47.78125 
Q 14.84375 50.984375 19.328125 52.390625 
Q 23.828125 53.8125 28.8125 53.8125 
Q 35.0625 53.8125 39.46875 51.640625 
Q 43.890625 49.46875 46.71875 45.5625 
Q 49.5625 41.65625 50.875 36.203125 
Q 52.203125 30.765625 52.203125 24.171875 
L 52.203125 23.78125 
L 18.3125 23.78125 
Q 18.3125 20.453125 18.890625 17.59375 
Q 19.484375 14.75 20.796875 12.671875 
Q 22.125 10.59375 24.21875 9.390625 
Q 26.3125 8.203125 29.296875 8.203125 
Q 32.90625 8.203125 35.203125 9.734375 
Q 37.5 11.28125 38.484375 14.5 
L 51.421875 13.375 
Q 50.53125 11.140625 48.9375 8.59375 
Q 47.359375 6.0625 44.71875 3.9375 
Q 42.09375 1.8125 38.15625 0.40625 
Q 34.234375 -0.984375 28.609375 -0.984375 
z
M 28.609375 45.171875 
Q 26.515625 45.171875 24.6875 44.453125 
Q 22.859375 43.75 21.515625 42.203125 
Q 20.171875 40.671875 19.328125 38.234375 
Q 18.5 35.796875 18.40625 32.375 
L 38.921875 32.375 
Q 38.53125 38.765625 35.84375 41.96875 
Q 33.15625 45.171875 28.609375 45.171875 
z
" id="LiberationSans-Bold-101"/>
     <path d="M 19.1875 -0.984375 
Q 15.375 -0.984375 12.375 0.0625 
Q 9.375 1.125 7.265625 3.140625 
Q 5.171875 5.171875 4.046875 8.15625 
Q 2.9375 11.140625 2.9375 14.9375 
Q 2.9375 19.625 4.5625 22.828125 
Q 6.203125 26.03125 9.03125 28 
Q 11.859375 29.984375 15.671875 30.875 
Q 19.484375 31.78125 23.78125 31.84375 
L 35.15625 32.03125 
L 35.15625 34.71875 
Q 35.15625 37.59375 34.640625 39.515625 
Q 34.125 41.453125 33.140625 42.671875 
Q 32.171875 43.890625 30.734375 44.40625 
Q 29.296875 44.921875 27.4375 44.921875 
Q 25.734375 44.921875 24.390625 44.578125 
Q 23.046875 44.234375 22.0625 43.375 
Q 21.09375 42.53125 20.484375 41.09375 
Q 19.875 39.65625 19.625 37.453125 
L 5.328125 38.140625 
Q 5.90625 41.609375 7.46875 44.453125 
Q 9.03125 47.3125 11.78125 49.40625 
Q 14.546875 51.515625 18.578125 52.65625 
Q 22.609375 53.8125 28.03125 53.8125 
Q 32.953125 53.8125 36.8125 52.59375 
Q 40.671875 51.375 43.359375 48.953125 
Q 46.046875 46.53125 47.453125 43.015625 
Q 48.875 39.5 48.875 34.859375 
L 48.875 15.625 
Q 48.875 13.765625 49.046875 12.296875 
Q 49.21875 10.84375 49.671875 9.84375 
Q 50.140625 8.84375 51 8.328125 
Q 51.859375 7.8125 53.21875 7.8125 
Q 54.78125 7.8125 56.25 8.109375 
L 56.25 0.6875 
Q 55.03125 0.390625 54.046875 0.140625 
Q 53.078125 -0.09375 52.09375 -0.234375 
Q 51.125 -0.390625 50.015625 -0.484375 
Q 48.921875 -0.59375 47.46875 -0.59375 
Q 42.28125 -0.59375 39.8125 1.953125 
Q 37.359375 4.5 36.859375 9.421875 
L 36.578125 9.421875 
Q 33.84375 4.5 29.5625 1.75 
Q 25.296875 -0.984375 19.1875 -0.984375 
z
M 35.15625 24.46875 
L 28.125 24.359375 
Q 25.921875 24.265625 23.9375 24 
Q 21.96875 23.734375 20.484375 22.875 
Q 19 22.015625 18.109375 20.40625 
Q 17.234375 18.796875 17.234375 16.015625 
Q 17.234375 12.25 18.96875 10.421875 
Q 20.703125 8.59375 23.578125 8.59375 
Q 26.21875 8.59375 28.359375 9.71875 
Q 30.515625 10.84375 32 12.671875 
Q 33.5 14.5 34.328125 16.890625 
Q 35.15625 19.28125 35.15625 21.78125 
z
" id="LiberationSans-Bold-97"/>
     <path d="M 6.984375 0 
L 6.984375 40.4375 
Q 6.984375 42.140625 6.953125 44.046875 
Q 6.9375 45.953125 6.859375 47.6875 
Q 6.78125 49.421875 6.734375 50.8125 
Q 6.6875 52.203125 6.59375 52.828125 
L 19.671875 52.828125 
Q 19.78125 52.25 19.875 50.796875 
Q 19.96875 49.359375 20.0625 47.65625 
Q 20.171875 45.953125 20.234375 44.265625 
Q 20.3125 42.578125 20.3125 41.546875 
L 20.515625 41.546875 
Q 21.53125 44.4375 22.546875 46.703125 
Q 23.578125 48.96875 24.96875 50.5625 
Q 26.375 52.15625 28.328125 53 
Q 30.28125 53.859375 33.15625 53.859375 
Q 34.375 53.859375 35.5625 53.640625 
Q 36.765625 53.421875 37.40625 53.125 
L 37.40625 41.65625 
Q 36.078125 41.9375 34.734375 42.15625 
Q 33.40625 42.390625 31.546875 42.390625 
Q 26.421875 42.390625 23.5625 38.234375 
Q 20.703125 34.078125 20.703125 25.921875 
L 20.703125 0 
z
" id="LiberationSans-Bold-114"/>
     <path d="M 41.21875 0 
L 41.21875 29.640625 
Q 41.21875 32.71875 40.71875 35.28125 
Q 40.234375 37.84375 39.109375 39.671875 
Q 37.984375 41.5 36.171875 42.53125 
Q 34.375 43.5625 31.78125 43.5625 
Q 29.296875 43.5625 27.265625 42.453125 
Q 25.25 41.359375 23.78125 39.328125 
Q 22.3125 37.3125 21.5 34.5 
Q 20.703125 31.6875 20.703125 28.328125 
L 20.703125 0 
L 6.984375 0 
L 6.984375 41.015625 
Q 6.984375 42.71875 6.953125 44.53125 
Q 6.9375 46.34375 6.859375 47.96875 
Q 6.78125 49.609375 6.734375 50.90625 
Q 6.6875 52.203125 6.59375 52.828125 
L 19.671875 52.828125 
Q 19.78125 52.25 19.875 50.953125 
Q 19.96875 49.65625 20.0625 48.09375 
Q 20.171875 46.53125 20.234375 44.96875 
Q 20.3125 43.40625 20.3125 42.328125 
L 20.515625 42.328125 
Q 23.296875 48.390625 27.484375 51.125 
Q 31.6875 53.859375 37.5 53.859375 
Q 42.28125 53.859375 45.578125 52.296875 
Q 48.875 50.734375 50.953125 48 
Q 53.03125 45.265625 53.953125 41.546875 
Q 54.890625 37.84375 54.890625 33.546875 
L 54.890625 0 
z
" id="LiberationSans-Bold-110"/>
     <path d="M 29 -0.984375 
Q 22.703125 -0.984375 17.984375 0.96875 
Q 13.28125 2.9375 10.15625 6.5 
Q 7.03125 10.0625 5.46875 15.0625 
Q 3.90625 20.0625 3.90625 26.125 
Q 3.90625 32.71875 5.609375 37.859375 
Q 7.328125 43.015625 10.546875 46.546875 
Q 13.765625 50.09375 18.46875 51.953125 
Q 23.1875 53.8125 29.203125 53.8125 
Q 34.328125 53.8125 38.296875 52.4375 
Q 42.28125 51.078125 45.15625 48.703125 
Q 48.046875 46.34375 49.828125 43.109375 
Q 51.609375 39.890625 52.296875 36.1875 
L 38.484375 35.5 
Q 37.890625 39.546875 35.546875 41.96875 
Q 33.203125 44.390625 28.90625 44.390625 
Q 23.390625 44.390625 20.84375 39.84375 
Q 18.3125 35.296875 18.3125 26.65625 
Q 18.3125 8.40625 29.109375 8.40625 
Q 33.015625 8.40625 35.640625 10.859375 
Q 38.28125 13.328125 38.921875 18.21875 
L 52.6875 17.578125 
Q 52.203125 13.921875 50.46875 10.578125 
Q 48.734375 7.234375 45.78125 4.65625 
Q 42.828125 2.09375 38.625 0.546875 
Q 34.421875 -0.984375 29 -0.984375 
z
" id="LiberationSans-Bold-99"/>
    </defs>
    <g style="fill:#262626;" transform="translate(444.219531 14.446875)scale(0.1 -0.1)">
     <use xlink:href="#LiberationSans-Bold-67"/>
     <use x="72.216797" xlink:href="#LiberationSans-Bold-108"/>
     <use x="100" xlink:href="#LiberationSans-Bold-101"/>
     <use x="155.615234" xlink:href="#LiberationSans-Bold-97"/>
     <use x="211.230469" xlink:href="#LiberationSans-Bold-114"/>
     <use x="250.146484" xlink:href="#LiberationSans-Bold-97"/>
     <use x="305.761719" xlink:href="#LiberationSans-Bold-110"/>
     <use x="366.845703" xlink:href="#LiberationSans-Bold-99"/>
     <use x="422.460938" xlink:href="#LiberationSans-Bold-101"/>
    </g>
   </g>
   <g id="legend_1">
    <g id="LineCollection_9">
     <path d="M 530.2875 45.940625 
L 550.2875 45.940625 
" style="fill:none;stroke:#000000;stroke-opacity:0.7;stroke-width:1.5;"/>
    </g>
    <g id="LineCollection_10">
     <path d="M 540.2875 55.940625 
L 540.2875 35.940625 
" style="fill:none;stroke:#000000;stroke-opacity:0.7;stroke-width:1.5;"/>
    </g>
    <g id="line2d_29"/>
    <g id="line2d_30">
     <defs>
      <path d="M -5 5 
L 5 5 
L 5 -5 
L -5 -5 
z
" id="m189deed995" style="stroke:#000000;stroke-linejoin:miter;stroke-opacity:0.7;"/>
     </defs>
     <g>
      <use style="fill-opacity:0.7;stroke:#000000;stroke-linejoin:miter;stroke-opacity:0.7;" x="540.2875" xlink:href="#m189deed995" y="45.940625"/>
     </g>
    </g>
    <g id="text_14">
     <!-- control(Individuals.:0,Groups:0) -->
     <defs>
      <path d="M 13.421875 26.65625 
Q 13.421875 22.125 14.078125 18.3125 
Q 14.75 14.5 16.3125 11.734375 
Q 17.875 8.984375 20.4375 7.46875 
Q 23 5.953125 26.765625 5.953125 
Q 31.453125 5.953125 34.59375 8.484375 
Q 37.75 11.03125 38.484375 16.3125 
L 47.359375 15.71875 
Q 46.921875 12.453125 45.453125 9.421875 
Q 44 6.390625 41.484375 4.09375 
Q 38.96875 1.8125 35.34375 0.40625 
Q 31.734375 -0.984375 27 -0.984375 
Q 20.796875 -0.984375 16.453125 1.109375 
Q 12.109375 3.21875 9.390625 6.90625 
Q 6.6875 10.59375 5.46875 15.59375 
Q 4.25 20.609375 4.25 26.46875 
Q 4.25 31.78125 5.125 35.859375 
Q 6 39.9375 7.59375 42.984375 
Q 9.1875 46.046875 11.328125 48.125 
Q 13.484375 50.203125 15.984375 51.4375 
Q 18.5 52.6875 21.28125 53.25 
Q 24.078125 53.8125 26.90625 53.8125 
Q 31.34375 53.8125 34.8125 52.59375 
Q 38.28125 51.375 40.796875 49.25 
Q 43.3125 47.125 44.875 44.234375 
Q 46.4375 41.359375 47.078125 38.03125 
L 38.03125 37.359375 
Q 37.359375 41.75 34.5625 44.328125 
Q 31.78125 46.921875 26.65625 46.921875 
Q 22.90625 46.921875 20.390625 45.671875 
Q 17.875 44.4375 16.3125 41.921875 
Q 14.75 39.40625 14.078125 35.59375 
Q 13.421875 31.78125 13.421875 26.65625 
z
" id="LiberationSans-99"/>
      <path d="M 51.421875 26.46875 
Q 51.421875 12.59375 45.3125 5.796875 
Q 39.203125 -0.984375 27.59375 -0.984375 
Q 22.078125 -0.984375 17.71875 0.671875 
Q 13.375 2.34375 10.375 5.765625 
Q 7.375 9.1875 5.78125 14.328125 
Q 4.203125 19.484375 4.203125 26.46875 
Q 4.203125 53.8125 27.875 53.8125 
Q 34.03125 53.8125 38.5 52.09375 
Q 42.96875 50.390625 45.828125 46.96875 
Q 48.6875 43.5625 50.046875 38.421875 
Q 51.421875 33.296875 51.421875 26.46875 
z
M 42.1875 26.46875 
Q 42.1875 32.625 41.234375 36.625 
Q 40.28125 40.625 38.453125 43.015625 
Q 36.625 45.40625 33.984375 46.359375 
Q 31.34375 47.3125 28.03125 47.3125 
Q 24.65625 47.3125 21.9375 46.3125 
Q 19.234375 45.3125 17.328125 42.890625 
Q 15.4375 40.484375 14.421875 36.46875 
Q 13.421875 32.46875 13.421875 26.46875 
Q 13.421875 20.3125 14.5 16.28125 
Q 15.578125 12.25 17.453125 9.859375 
Q 19.34375 7.46875 21.90625 6.484375 
Q 24.46875 5.515625 27.484375 5.515625 
Q 30.859375 5.515625 33.59375 6.46875 
Q 36.328125 7.421875 38.234375 9.8125 
Q 40.140625 12.203125 41.15625 16.25 
Q 42.1875 20.3125 42.1875 26.46875 
z
" id="LiberationSans-111"/>
      <path d="M 40.28125 0 
L 40.28125 33.5 
Q 40.28125 37.359375 39.71875 39.9375 
Q 39.15625 42.53125 37.890625 44.109375 
Q 36.625 45.703125 34.546875 46.359375 
Q 32.46875 47.015625 29.390625 47.015625 
Q 26.265625 47.015625 23.75 45.921875 
Q 21.234375 44.828125 19.453125 42.75 
Q 17.671875 40.671875 16.6875 37.625 
Q 15.71875 34.578125 15.71875 30.609375 
L 15.71875 0 
L 6.9375 0 
L 6.9375 41.546875 
Q 6.9375 43.21875 6.90625 45.046875 
Q 6.890625 46.875 6.828125 48.5 
Q 6.78125 50.140625 6.734375 51.3125 
Q 6.6875 52.484375 6.640625 52.828125 
L 14.9375 52.828125 
Q 14.984375 52.59375 15.03125 51.515625 
Q 15.09375 50.4375 15.15625 49.046875 
Q 15.234375 47.65625 15.28125 46.21875 
Q 15.328125 44.78125 15.328125 43.796875 
L 15.484375 43.796875 
Q 16.75 46.09375 18.265625 47.953125 
Q 19.78125 49.8125 21.78125 51.09375 
Q 23.78125 52.390625 26.359375 53.09375 
Q 28.953125 53.8125 32.375 53.8125 
Q 36.765625 53.8125 39.9375 52.734375 
Q 43.109375 51.65625 45.15625 49.40625 
Q 47.21875 47.171875 48.171875 43.625 
Q 49.125 40.09375 49.125 35.203125 
L 49.125 0 
z
" id="LiberationSans-110"/>
      <path d="M 27.046875 0.390625 
Q 25.046875 -0.140625 22.96875 -0.453125 
Q 20.90625 -0.78125 18.171875 -0.78125 
Q 7.625 -0.78125 7.625 11.1875 
L 7.625 46.4375 
L 1.515625 46.4375 
L 1.515625 52.828125 
L 7.953125 52.828125 
L 10.546875 64.65625 
L 16.40625 64.65625 
L 16.40625 52.828125 
L 26.171875 52.828125 
L 26.171875 46.4375 
L 16.40625 46.4375 
L 16.40625 13.09375 
Q 16.40625 9.28125 17.640625 7.734375 
Q 18.890625 6.203125 21.96875 6.203125 
Q 23.25 6.203125 24.4375 6.390625 
Q 25.640625 6.59375 27.046875 6.890625 
z
" id="LiberationSans-116"/>
      <path d="M 6.9375 0 
L 6.9375 40.53125 
Q 6.9375 42.1875 6.90625 43.921875 
Q 6.890625 45.65625 6.828125 47.265625 
Q 6.78125 48.875 6.734375 50.28125 
Q 6.6875 51.703125 6.640625 52.828125 
L 14.9375 52.828125 
Q 14.984375 51.703125 15.0625 50.265625 
Q 15.140625 48.828125 15.203125 47.3125 
Q 15.28125 45.796875 15.296875 44.40625 
Q 15.328125 43.015625 15.328125 42.046875 
L 15.53125 42.046875 
Q 16.453125 45.0625 17.5 47.28125 
Q 18.5625 49.515625 19.96875 50.953125 
Q 21.390625 52.390625 23.34375 53.09375 
Q 25.296875 53.8125 28.078125 53.8125 
Q 29.15625 53.8125 30.125 53.640625 
Q 31.109375 53.46875 31.640625 53.328125 
L 31.640625 45.265625 
Q 30.765625 45.515625 29.59375 45.625 
Q 28.421875 45.75 26.953125 45.75 
Q 23.921875 45.75 21.796875 44.375 
Q 19.671875 43.015625 18.328125 40.59375 
Q 17 38.1875 16.359375 34.84375 
Q 15.71875 31.5 15.71875 27.546875 
L 15.71875 0 
z
" id="LiberationSans-114"/>
      <path d="M 6.734375 0 
L 6.734375 72.46875 
L 15.53125 72.46875 
L 15.53125 0 
z
" id="LiberationSans-108"/>
      <path d="M 6.203125 25.984375 
Q 6.203125 32.765625 7.21875 38.96875 
Q 8.25 45.171875 10.4375 50.875 
Q 12.640625 56.59375 16.0625 61.953125 
Q 19.484375 67.328125 24.21875 72.46875 
L 32.71875 72.46875 
Q 28.125 67.328125 24.78125 61.9375 
Q 21.4375 56.546875 19.28125 50.796875 
Q 17.140625 45.0625 16.09375 38.859375 
Q 15.046875 32.671875 15.046875 25.875 
Q 15.046875 19.09375 16.09375 12.890625 
Q 17.140625 6.6875 19.28125 0.921875 
Q 21.4375 -4.828125 24.78125 -10.203125 
Q 28.125 -15.578125 32.71875 -20.703125 
L 24.21875 -20.703125 
Q 19.484375 -15.578125 16.0625 -10.203125 
Q 12.640625 -4.828125 10.4375 0.875 
Q 8.25 6.59375 7.21875 12.765625 
Q 6.203125 18.953125 6.203125 25.78125 
z
" id="LiberationSans-40"/>
      <path d="M 9.234375 0 
L 9.234375 68.796875 
L 18.5625 68.796875 
L 18.5625 0 
z
" id="LiberationSans-73"/>
      <path d="M 40.09375 8.5 
Q 37.640625 3.421875 33.609375 1.21875 
Q 29.59375 -0.984375 23.640625 -0.984375 
Q 13.625 -0.984375 8.90625 5.75 
Q 4.203125 12.5 4.203125 26.171875 
Q 4.203125 53.8125 23.640625 53.8125 
Q 29.640625 53.8125 33.640625 51.609375 
Q 37.640625 49.421875 40.09375 44.625 
L 40.1875 44.625 
Q 40.1875 45.125 40.15625 46.171875 
Q 40.140625 47.21875 40.109375 48.359375 
Q 40.09375 49.515625 40.09375 50.53125 
Q 40.09375 51.5625 40.09375 52 
L 40.09375 72.46875 
L 48.875 72.46875 
L 48.875 10.890625 
Q 48.875 8.984375 48.890625 7.21875 
Q 48.921875 5.46875 48.96875 4 
Q 49.03125 2.546875 49.078125 1.484375 
Q 49.125 0.4375 49.171875 0 
L 40.765625 0 
Q 40.671875 0.484375 40.59375 1.390625 
Q 40.53125 2.296875 40.453125 3.46875 
Q 40.375 4.640625 40.328125 5.9375 
Q 40.28125 7.234375 40.28125 8.5 
z
M 13.421875 26.46875 
Q 13.421875 21 14.109375 17.09375 
Q 14.796875 13.1875 16.3125 10.671875 
Q 17.828125 8.15625 20.171875 6.984375 
Q 22.515625 5.8125 25.875 5.8125 
Q 29.34375 5.8125 32 6.9375 
Q 34.671875 8.0625 36.453125 10.578125 
Q 38.234375 13.09375 39.15625 17.140625 
Q 40.09375 21.1875 40.09375 27.046875 
Q 40.09375 32.671875 39.15625 36.546875 
Q 38.234375 40.4375 36.421875 42.828125 
Q 34.625 45.21875 32 46.265625 
Q 29.390625 47.3125 25.984375 47.3125 
Q 22.75 47.3125 20.40625 46.1875 
Q 18.0625 45.0625 16.5 42.578125 
Q 14.9375 40.09375 14.171875 36.109375 
Q 13.421875 32.125 13.421875 26.46875 
z
" id="LiberationSans-100"/>
      <path d="M 6.6875 64.0625 
L 6.6875 72.46875 
L 15.484375 72.46875 
L 15.484375 64.0625 
z
M 6.6875 0 
L 6.6875 52.828125 
L 15.484375 52.828125 
L 15.484375 0 
z
" id="LiberationSans-105"/>
      <path d="M 29.9375 0 
L 19.53125 0 
L 0.34375 52.828125 
L 9.71875 52.828125 
L 21.34375 18.453125 
Q 21.6875 17.390625 22.140625 15.84375 
Q 22.609375 14.3125 23.09375 12.640625 
Q 23.578125 10.984375 24 9.4375 
Q 24.421875 7.90625 24.703125 6.890625 
Q 25 7.90625 25.453125 9.4375 
Q 25.921875 10.984375 26.40625 12.59375 
Q 26.90625 14.203125 27.421875 15.734375 
Q 27.9375 17.28125 28.328125 18.359375 
L 40.328125 52.828125 
L 49.65625 52.828125 
z
" id="LiberationSans-118"/>
      <path d="M 15.328125 52.828125 
L 15.328125 19.34375 
Q 15.328125 15.484375 15.890625 12.890625 
Q 16.453125 10.296875 17.71875 8.703125 
Q 19 7.125 21.0625 6.46875 
Q 23.140625 5.8125 26.21875 5.8125 
Q 29.34375 5.8125 31.859375 6.90625 
Q 34.375 8.015625 36.15625 10.078125 
Q 37.9375 12.15625 38.90625 15.203125 
Q 39.890625 18.265625 39.890625 22.21875 
L 39.890625 52.828125 
L 48.6875 52.828125 
L 48.6875 11.28125 
Q 48.6875 9.625 48.703125 7.78125 
Q 48.734375 5.953125 48.78125 4.3125 
Q 48.828125 2.6875 48.875 1.515625 
Q 48.921875 0.34375 48.96875 0 
L 40.671875 0 
Q 40.625 0.25 40.578125 1.3125 
Q 40.53125 2.390625 40.453125 3.78125 
Q 40.375 5.171875 40.328125 6.609375 
Q 40.28125 8.0625 40.28125 9.03125 
L 40.140625 9.03125 
Q 38.875 6.734375 37.359375 4.875 
Q 35.84375 3.03125 33.84375 1.734375 
Q 31.84375 0.4375 29.25 -0.265625 
Q 26.65625 -0.984375 23.25 -0.984375 
Q 18.84375 -0.984375 15.671875 0.09375 
Q 12.5 1.171875 10.453125 3.421875 
Q 8.40625 5.671875 7.453125 9.1875 
Q 6.5 12.703125 6.5 17.625 
L 6.5 52.828125 
z
" id="LiberationSans-117"/>
      <path d="M 20.21875 -0.984375 
Q 12.25 -0.984375 8.25 3.21875 
Q 4.25 7.421875 4.25 14.75 
Q 4.25 19.96875 6.21875 23.3125 
Q 8.203125 26.65625 11.390625 28.5625 
Q 14.59375 30.46875 18.6875 31.203125 
Q 22.796875 31.9375 27.046875 32.03125 
L 38.921875 32.234375 
L 38.921875 35.109375 
Q 38.921875 38.375 38.234375 40.671875 
Q 37.546875 42.96875 36.125 44.375 
Q 34.71875 45.796875 32.59375 46.453125 
Q 30.46875 47.125 27.59375 47.125 
Q 25.046875 47.125 23 46.75 
Q 20.953125 46.390625 19.4375 45.4375 
Q 17.921875 44.484375 16.984375 42.84375 
Q 16.0625 41.21875 15.765625 38.71875 
L 6.59375 39.546875 
Q 7.078125 42.671875 8.4375 45.28125 
Q 9.8125 47.90625 12.328125 49.796875 
Q 14.84375 51.703125 18.625 52.75 
Q 22.40625 53.8125 27.78125 53.8125 
Q 37.75 53.8125 42.765625 49.234375 
Q 47.796875 44.671875 47.796875 36.03125 
L 47.796875 13.28125 
Q 47.796875 9.375 48.828125 7.390625 
Q 49.859375 5.421875 52.734375 5.421875 
Q 53.46875 5.421875 54.203125 5.515625 
Q 54.9375 5.609375 55.609375 5.765625 
L 55.609375 0.296875 
Q 53.953125 -0.09375 52.3125 -0.28125 
Q 50.6875 -0.484375 48.828125 -0.484375 
Q 46.34375 -0.484375 44.5625 0.171875 
Q 42.78125 0.828125 41.65625 2.171875 
Q 40.53125 3.515625 39.9375 5.484375 
Q 39.359375 7.46875 39.203125 10.109375 
L 38.921875 10.109375 
Q 37.5 7.5625 35.8125 5.515625 
Q 34.125 3.46875 31.875 2.03125 
Q 29.640625 0.59375 26.78125 -0.1875 
Q 23.921875 -0.984375 20.21875 -0.984375 
z
M 22.21875 5.609375 
Q 26.421875 5.609375 29.5625 7.140625 
Q 32.71875 8.6875 34.78125 11.078125 
Q 36.859375 13.484375 37.890625 16.3125 
Q 38.921875 19.140625 38.921875 21.734375 
L 38.921875 26.078125 
L 29.296875 25.875 
Q 26.078125 25.828125 23.171875 25.40625 
Q 20.265625 25 18.0625 23.78125 
Q 15.875 22.5625 14.578125 20.359375 
Q 13.28125 18.171875 13.28125 14.59375 
Q 13.28125 10.296875 15.59375 7.953125 
Q 17.921875 5.609375 22.21875 5.609375 
z
" id="LiberationSans-97"/>
      <path d="M 46.390625 14.59375 
Q 46.390625 10.890625 44.9375 7.984375 
Q 43.5 5.078125 40.765625 3.09375 
Q 38.03125 1.125 34.046875 0.0625 
Q 30.078125 -0.984375 24.953125 -0.984375 
Q 20.359375 -0.984375 16.671875 -0.265625 
Q 12.984375 0.4375 10.203125 2 
Q 7.421875 3.5625 5.53125 6.125 
Q 3.65625 8.6875 2.78125 12.40625 
L 10.546875 13.921875 
Q 11.671875 9.671875 15.1875 7.6875 
Q 18.703125 5.71875 24.953125 5.71875 
Q 27.78125 5.71875 30.140625 6.109375 
Q 32.515625 6.5 34.21875 7.453125 
Q 35.9375 8.40625 36.890625 9.984375 
Q 37.84375 11.578125 37.84375 13.921875 
Q 37.84375 16.3125 36.71875 17.84375 
Q 35.59375 19.390625 33.59375 20.40625 
Q 31.59375 21.4375 28.734375 22.1875 
Q 25.875 22.953125 22.46875 23.875 
Q 19.28125 24.703125 16.15625 25.734375 
Q 13.03125 26.765625 10.515625 28.4375 
Q 8.015625 30.125 6.453125 32.609375 
Q 4.890625 35.109375 4.890625 38.875 
Q 4.890625 46.09375 10.03125 49.875 
Q 15.1875 53.65625 25.046875 53.65625 
Q 33.796875 53.65625 38.9375 50.578125 
Q 44.09375 47.515625 45.453125 40.71875 
L 37.546875 39.75 
Q 37.109375 41.796875 35.9375 43.1875 
Q 34.765625 44.578125 33.109375 45.4375 
Q 31.453125 46.296875 29.375 46.65625 
Q 27.296875 47.015625 25.046875 47.015625 
Q 19.09375 47.015625 16.25 45.203125 
Q 13.421875 43.40625 13.421875 39.75 
Q 13.421875 37.59375 14.46875 36.203125 
Q 15.53125 34.8125 17.40625 33.859375 
Q 19.28125 32.90625 21.921875 32.203125 
Q 24.5625 31.5 27.734375 30.71875 
Q 29.828125 30.171875 32.03125 29.5625 
Q 34.234375 28.953125 36.296875 28.09375 
Q 38.375 27.25 40.203125 26.09375 
Q 42.046875 24.953125 43.40625 23.34375 
Q 44.78125 21.734375 45.578125 19.578125 
Q 46.390625 17.4375 46.390625 14.59375 
z
" id="LiberationSans-115"/>
      <path d="M 9.125 42.71875 
L 9.125 52.828125 
L 18.65625 52.828125 
L 18.65625 42.71875 
z
M 9.125 0 
L 9.125 10.109375 
L 18.65625 10.109375 
L 18.65625 0 
z
" id="LiberationSans-58"/>
      <path d="M 18.796875 10.6875 
L 18.796875 2.484375 
Q 18.796875 -0.09375 18.578125 -2.21875 
Q 18.359375 -4.34375 17.875 -6.171875 
Q 17.390625 -8.015625 16.671875 -9.625 
Q 15.96875 -11.234375 14.984375 -12.796875 
L 8.984375 -12.796875 
Q 11.1875 -9.625 12.375 -6.390625 
Q 13.578125 -3.171875 13.578125 0 
L 9.28125 0 
L 9.28125 10.6875 
z
" id="LiberationSans-44"/>
      <path d="M 5.03125 34.71875 
Q 5.03125 42.78125 7.203125 49.265625 
Q 9.375 55.765625 13.6875 60.328125 
Q 18.015625 64.890625 24.40625 67.359375 
Q 30.8125 69.828125 39.265625 69.828125 
Q 45.609375 69.828125 50.390625 68.703125 
Q 55.171875 67.578125 58.6875 65.46875 
Q 62.203125 63.375 64.640625 60.375 
Q 67.09375 57.375 68.796875 53.609375 
L 59.90625 50.984375 
Q 58.640625 53.515625 56.859375 55.59375 
Q 55.078125 57.671875 52.53125 59.125 
Q 50 60.59375 46.65625 61.390625 
Q 43.3125 62.203125 39.015625 62.203125 
Q 32.765625 62.203125 28.140625 60.25 
Q 23.53125 58.296875 20.5 54.6875 
Q 17.484375 51.078125 15.984375 46 
Q 14.5 40.921875 14.5 34.71875 
Q 14.5 28.515625 16.109375 23.359375 
Q 17.71875 18.21875 20.890625 14.484375 
Q 24.078125 10.75 28.78125 8.671875 
Q 33.5 6.59375 39.703125 6.59375 
Q 43.75 6.59375 47.171875 7.265625 
Q 50.59375 7.953125 53.34375 9.046875 
Q 56.109375 10.15625 58.203125 11.5 
Q 60.296875 12.84375 61.71875 14.203125 
L 61.71875 26.609375 
L 41.15625 26.609375 
L 41.15625 34.421875 
L 70.3125 34.421875 
L 70.3125 10.6875 
Q 68.015625 8.34375 64.90625 6.21875 
Q 61.8125 4.109375 57.953125 2.484375 
Q 54.109375 0.875 49.515625 -0.046875 
Q 44.921875 -0.984375 39.703125 -0.984375 
Q 31 -0.984375 24.5 1.671875 
Q 18.015625 4.34375 13.6875 9.109375 
Q 9.375 13.875 7.203125 20.40625 
Q 5.03125 26.953125 5.03125 34.71875 
z
" id="LiberationSans-71"/>
      <path d="M 51.421875 26.65625 
Q 51.421875 20.65625 50.4375 15.578125 
Q 49.46875 10.5 47.1875 6.828125 
Q 44.921875 3.171875 41.1875 1.09375 
Q 37.453125 -0.984375 31.984375 -0.984375 
Q 26.3125 -0.984375 22.0625 1.171875 
Q 17.828125 3.328125 15.578125 8.203125 
L 15.328125 8.203125 
Q 15.375 8.109375 15.40625 7.328125 
Q 15.4375 6.546875 15.453125 5.375 
Q 15.484375 4.203125 15.5 2.75 
Q 15.53125 1.3125 15.53125 -0.09375 
L 15.53125 -20.75 
L 6.734375 -20.75 
L 6.734375 42.046875 
Q 6.734375 43.953125 6.703125 45.703125 
Q 6.6875 47.46875 6.640625 48.90625 
Q 6.59375 50.34375 6.546875 51.359375 
Q 6.5 52.390625 6.453125 52.828125 
L 14.9375 52.828125 
Q 14.984375 52.6875 15.0625 51.796875 
Q 15.140625 50.921875 15.203125 49.671875 
Q 15.28125 48.4375 15.359375 47.015625 
Q 15.4375 45.609375 15.4375 44.34375 
L 15.625 44.34375 
Q 16.84375 46.875 18.40625 48.65625 
Q 19.96875 50.4375 21.96875 51.578125 
Q 23.96875 52.734375 26.4375 53.25 
Q 28.90625 53.765625 31.984375 53.765625 
Q 37.453125 53.765625 41.1875 51.8125 
Q 44.921875 49.859375 47.1875 46.3125 
Q 49.46875 42.78125 50.4375 37.765625 
Q 51.421875 32.765625 51.421875 26.65625 
z
M 42.1875 26.46875 
Q 42.1875 31.34375 41.59375 35.15625 
Q 41.015625 38.96875 39.578125 41.59375 
Q 38.140625 44.234375 35.734375 45.59375 
Q 33.34375 46.96875 29.734375 46.96875 
Q 26.8125 46.96875 24.21875 46.140625 
Q 21.625 45.3125 19.703125 42.96875 
Q 17.78125 40.625 16.65625 36.5 
Q 15.53125 32.375 15.53125 25.78125 
Q 15.53125 20.171875 16.453125 16.28125 
Q 17.390625 12.40625 19.171875 10.015625 
Q 20.953125 7.625 23.578125 6.5625 
Q 26.21875 5.515625 29.640625 5.515625 
Q 33.296875 5.515625 35.71875 6.921875 
Q 38.140625 8.34375 39.578125 11.03125 
Q 41.015625 13.71875 41.59375 17.59375 
Q 42.1875 21.484375 42.1875 26.46875 
z
" id="LiberationSans-112"/>
      <path d="M 27.09375 25.78125 
Q 27.09375 18.953125 26.0625 12.765625 
Q 25.046875 6.59375 22.84375 0.875 
Q 20.65625 -4.828125 17.234375 -10.203125 
Q 13.8125 -15.578125 9.078125 -20.703125 
L 0.59375 -20.703125 
Q 5.171875 -15.578125 8.515625 -10.203125 
Q 11.859375 -4.828125 14 0.921875 
Q 16.15625 6.6875 17.203125 12.890625 
Q 18.265625 19.09375 18.265625 25.875 
Q 18.265625 32.671875 17.203125 38.859375 
Q 16.15625 45.0625 14 50.796875 
Q 11.859375 56.546875 8.515625 61.9375 
Q 5.171875 67.328125 0.59375 72.46875 
L 9.078125 72.46875 
Q 13.8125 67.328125 17.234375 61.953125 
Q 20.65625 56.59375 22.84375 50.875 
Q 25.046875 45.171875 26.0625 38.96875 
Q 27.09375 32.765625 27.09375 25.984375 
z
" id="LiberationSans-41"/>
     </defs>
     <g style="fill:#262626;" transform="translate(576.2875 52.940625)scale(0.2 -0.2)">
      <use xlink:href="#LiberationSans-99"/>
      <use x="50" xlink:href="#LiberationSans-111"/>
      <use x="105.615234" xlink:href="#LiberationSans-110"/>
      <use x="161.230469" xlink:href="#LiberationSans-116"/>
      <use x="189.013672" xlink:href="#LiberationSans-114"/>
      <use x="222.314453" xlink:href="#LiberationSans-111"/>
      <use x="277.929688" xlink:href="#LiberationSans-108"/>
      <use x="300.146484" xlink:href="#LiberationSans-40"/>
      <use x="333.447266" xlink:href="#LiberationSans-73"/>
      <use x="361.230469" xlink:href="#LiberationSans-110"/>
      <use x="416.845703" xlink:href="#LiberationSans-100"/>
      <use x="472.460938" xlink:href="#LiberationSans-105"/>
      <use x="494.677734" xlink:href="#LiberationSans-118"/>
      <use x="544.677734" xlink:href="#LiberationSans-105"/>
      <use x="566.894531" xlink:href="#LiberationSans-100"/>
      <use x="622.509766" xlink:href="#LiberationSans-117"/>
      <use x="678.125" xlink:href="#LiberationSans-97"/>
      <use x="733.740234" xlink:href="#LiberationSans-108"/>
      <use x="755.957031" xlink:href="#LiberationSans-115"/>
      <use x="805.957031" xlink:href="#LiberationSans-46"/>
      <use x="833.740234" xlink:href="#LiberationSans-58"/>
      <use x="861.523438" xlink:href="#LiberationSans-48"/>
      <use x="917.138672" xlink:href="#LiberationSans-44"/>
      <use x="944.921875" xlink:href="#LiberationSans-71"/>
      <use x="1022.705078" xlink:href="#LiberationSans-114"/>
      <use x="1056.005859" xlink:href="#LiberationSans-111"/>
      <use x="1111.621094" xlink:href="#LiberationSans-117"/>
      <use x="1167.236328" xlink:href="#LiberationSans-112"/>
      <use x="1222.851562" xlink:href="#LiberationSans-115"/>
      <use x="1272.851562" xlink:href="#LiberationSans-58"/>
      <use x="1300.634766" xlink:href="#LiberationSans-48"/>
      <use x="1356.25" xlink:href="#LiberationSans-41"/>
     </g>
    </g>
    <g id="LineCollection_11">
     <path d="M 530.2875 74.584375 
L 550.2875 74.584375 
" style="fill:none;stroke:#0000ff;stroke-opacity:0.7;stroke-width:1.5;"/>
    </g>
    <g id="LineCollection_12">
     <path d="M 540.2875 84.584375 
L 540.2875 64.584375 
" style="fill:none;stroke:#0000ff;stroke-opacity:0.7;stroke-width:1.5;"/>
    </g>
    <g id="line2d_31"/>
    <g id="line2d_32">
     <defs>
      <path d="M -0 7.071068 
L 4.242641 0 
L -0 -7.071068 
L -4.242641 -0 
z
" id="m8a8eb30e86" style="stroke:#0000ff;stroke-linejoin:miter;stroke-opacity:0.7;"/>
     </defs>
     <g>
      <use style="fill:#0000ff;fill-opacity:0.7;stroke:#0000ff;stroke-linejoin:miter;stroke-opacity:0.7;" x="540.2875" xlink:href="#m8a8eb30e86" y="74.584375"/>
     </g>
    </g>
    <g id="text_15">
     <!-- smoking(Individuals.:0,Groups:0) -->
     <defs>
      <path d="M 37.5 0 
L 37.5 33.5 
Q 37.5 37.359375 37.015625 39.9375 
Q 36.53125 42.53125 35.375 44.109375 
Q 34.234375 45.703125 32.375 46.359375 
Q 30.515625 47.015625 27.828125 47.015625 
Q 25.046875 47.015625 22.796875 45.921875 
Q 20.5625 44.828125 18.96875 42.75 
Q 17.390625 40.671875 16.53125 37.625 
Q 15.671875 34.578125 15.671875 30.609375 
L 15.671875 0 
L 6.9375 0 
L 6.9375 41.546875 
Q 6.9375 43.21875 6.90625 45.046875 
Q 6.890625 46.875 6.828125 48.5 
Q 6.78125 50.140625 6.734375 51.3125 
Q 6.6875 52.484375 6.640625 52.828125 
L 14.9375 52.828125 
Q 14.984375 52.59375 15.03125 51.515625 
Q 15.09375 50.4375 15.15625 49.046875 
Q 15.234375 47.65625 15.28125 46.21875 
Q 15.328125 44.78125 15.328125 43.796875 
L 15.484375 43.796875 
Q 16.65625 46.09375 18.015625 47.953125 
Q 19.390625 49.8125 21.21875 51.09375 
Q 23.046875 52.390625 25.40625 53.09375 
Q 27.78125 53.8125 30.90625 53.8125 
Q 36.921875 53.8125 40.40625 51.421875 
Q 43.890625 49.03125 45.265625 43.796875 
L 45.40625 43.796875 
Q 46.578125 46.09375 48.046875 47.953125 
Q 49.515625 49.8125 51.46875 51.09375 
Q 53.421875 52.390625 55.859375 53.09375 
Q 58.296875 53.8125 61.421875 53.8125 
Q 65.4375 53.8125 68.328125 52.734375 
Q 71.234375 51.65625 73.09375 49.40625 
Q 74.953125 47.171875 75.828125 43.625 
Q 76.703125 40.09375 76.703125 35.203125 
L 76.703125 0 
L 68.015625 0 
L 68.015625 33.5 
Q 68.015625 37.359375 67.53125 39.9375 
Q 67.046875 42.53125 65.890625 44.109375 
Q 64.75 45.703125 62.890625 46.359375 
Q 61.03125 47.015625 58.34375 47.015625 
Q 55.5625 47.015625 53.3125 45.96875 
Q 51.078125 44.921875 49.484375 42.875 
Q 47.90625 40.828125 47.046875 37.75 
Q 46.1875 34.671875 46.1875 30.609375 
L 46.1875 0 
z
" id="LiberationSans-109"/>
      <path d="M 39.84375 0 
L 21.96875 24.125 
L 15.53125 18.796875 
L 15.53125 0 
L 6.734375 0 
L 6.734375 72.46875 
L 15.53125 72.46875 
L 15.53125 27.203125 
L 38.71875 52.828125 
L 49.03125 52.828125 
L 27.59375 30.125 
L 50.140625 0 
z
" id="LiberationSans-107"/>
      <path d="M 26.765625 -20.75 
Q 22.21875 -20.75 18.703125 -19.8125 
Q 15.1875 -18.890625 12.6875 -17.15625 
Q 10.203125 -15.4375 8.640625 -13.03125 
Q 7.078125 -10.640625 6.390625 -7.71875 
L 15.234375 -6.453125 
Q 16.109375 -10.109375 19.109375 -12.078125 
Q 22.125 -14.0625 27 -14.0625 
Q 29.984375 -14.0625 32.421875 -13.234375 
Q 34.859375 -12.40625 36.5625 -10.5625 
Q 38.28125 -8.734375 39.203125 -5.796875 
Q 40.140625 -2.875 40.140625 1.3125 
L 40.140625 9.8125 
L 40.046875 9.8125 
Q 39.0625 7.8125 37.625 5.984375 
Q 36.1875 4.15625 34.109375 2.734375 
Q 32.03125 1.3125 29.296875 0.453125 
Q 26.5625 -0.390625 23.046875 -0.390625 
Q 18.015625 -0.390625 14.421875 1.296875 
Q 10.84375 2.984375 8.5625 6.34375 
Q 6.296875 9.71875 5.25 14.71875 
Q 4.203125 19.734375 4.203125 26.3125 
Q 4.203125 32.671875 5.25 37.75 
Q 6.296875 42.828125 8.65625 46.359375 
Q 11.03125 49.90625 14.8125 51.78125 
Q 18.609375 53.65625 24.03125 53.65625 
Q 29.640625 53.65625 33.765625 51.09375 
Q 37.890625 48.53125 40.140625 43.796875 
L 40.234375 43.796875 
Q 40.234375 45.015625 40.296875 46.53125 
Q 40.375 48.046875 40.453125 49.390625 
Q 40.53125 50.734375 40.625 51.703125 
Q 40.71875 52.6875 40.828125 52.828125 
L 49.171875 52.828125 
Q 49.125 52.390625 49.078125 51.34375 
Q 49.03125 50.296875 48.96875 48.828125 
Q 48.921875 47.359375 48.890625 45.578125 
Q 48.875 43.796875 48.875 41.890625 
L 48.875 1.515625 
Q 48.875 -9.578125 43.421875 -15.15625 
Q 37.984375 -20.75 26.765625 -20.75 
z
M 40.140625 26.421875 
Q 40.140625 31.9375 38.9375 35.859375 
Q 37.75 39.796875 35.796875 42.28125 
Q 33.84375 44.78125 31.328125 45.953125 
Q 28.8125 47.125 26.171875 47.125 
Q 22.796875 47.125 20.375 45.953125 
Q 17.96875 44.78125 16.375 42.265625 
Q 14.796875 39.75 14.03125 35.8125 
Q 13.28125 31.890625 13.28125 26.421875 
Q 13.28125 20.703125 14.03125 16.8125 
Q 14.796875 12.9375 16.359375 10.546875 
Q 17.921875 8.15625 20.3125 7.125 
Q 22.703125 6.109375 26.03125 6.109375 
Q 28.65625 6.109375 31.171875 7.21875 
Q 33.6875 8.34375 35.6875 10.78125 
Q 37.703125 13.234375 38.921875 17.09375 
Q 40.140625 20.953125 40.140625 26.421875 
z
" id="LiberationSans-103"/>
     </defs>
     <g style="fill:#262626;" transform="translate(576.2875 81.584375)scale(0.2 -0.2)">
      <use xlink:href="#LiberationSans-115"/>
      <use x="50" xlink:href="#LiberationSans-109"/>
      <use x="133.300781" xlink:href="#LiberationSans-111"/>
      <use x="188.916016" xlink:href="#LiberationSans-107"/>
      <use x="238.916016" xlink:href="#LiberationSans-105"/>
      <use x="261.132812" xlink:href="#LiberationSans-110"/>
      <use x="316.748047" xlink:href="#LiberationSans-103"/>
      <use x="372.363281" xlink:href="#LiberationSans-40"/>
      <use x="405.664062" xlink:href="#LiberationSans-73"/>
      <use x="433.447266" xlink:href="#LiberationSans-110"/>
      <use x="489.0625" xlink:href="#LiberationSans-100"/>
      <use x="544.677734" xlink:href="#LiberationSans-105"/>
      <use x="566.894531" xlink:href="#LiberationSans-118"/>
      <use x="616.894531" xlink:href="#LiberationSans-105"/>
      <use x="639.111328" xlink:href="#LiberationSans-100"/>
      <use x="694.726562" xlink:href="#LiberationSans-117"/>
      <use x="750.341797" xlink:href="#LiberationSans-97"/>
      <use x="805.957031" xlink:href="#LiberationSans-108"/>
      <use x="828.173828" xlink:href="#LiberationSans-115"/>
      <use x="878.173828" xlink:href="#LiberationSans-46"/>
      <use x="905.957031" xlink:href="#LiberationSans-58"/>
      <use x="933.740234" xlink:href="#LiberationSans-48"/>
      <use x="989.355469" xlink:href="#LiberationSans-44"/>
      <use x="1017.138672" xlink:href="#LiberationSans-71"/>
      <use x="1094.921875" xlink:href="#LiberationSans-114"/>
      <use x="1128.222656" xlink:href="#LiberationSans-111"/>
      <use x="1183.837891" xlink:href="#LiberationSans-117"/>
      <use x="1239.453125" xlink:href="#LiberationSans-112"/>
      <use x="1295.068359" xlink:href="#LiberationSans-115"/>
      <use x="1345.068359" xlink:href="#LiberationSans-58"/>
      <use x="1372.851562" xlink:href="#LiberationSans-48"/>
      <use x="1428.466797" xlink:href="#LiberationSans-41"/>
     </g>
    </g>
    <g id="LineCollection_13">
     <path d="M 530.2875 103.228125 
L 550.2875 103.228125 
" style="fill:none;stroke:#008000;stroke-opacity:0.7;stroke-width:1.5;"/>
    </g>
    <g id="LineCollection_14">
     <path d="M 540.2875 113.228125 
L 540.2875 93.228125 
" style="fill:none;stroke:#008000;stroke-opacity:0.7;stroke-width:1.5;"/>
    </g>
    <g id="line2d_33"/>
    <g id="line2d_34">
     <defs>
      <path d="M 0 5 
C 1.326016 5 2.597899 4.473168 3.535534 3.535534 
C 4.473168 2.597899 5 1.326016 5 0 
C 5 -1.326016 4.473168 -2.597899 3.535534 -3.535534 
C 2.597899 -4.473168 1.326016 -5 0 -5 
C -1.326016 -5 -2.597899 -4.473168 -3.535534 -3.535534 
C -4.473168 -2.597899 -5 -1.326016 -5 0 
C -5 1.326016 -4.473168 2.597899 -3.535534 3.535534 
C -2.597899 4.473168 -1.326016 5 0 5 
z
" id="m7d29e9f06b" style="stroke:#008000;stroke-opacity:0.7;"/>
     </defs>
     <g>
      <use style="fill:#008000;fill-opacity:0.7;stroke:#008000;stroke-opacity:0.7;" x="540.2875" xlink:href="#m7d29e9f06b" y="103.228125"/>
     </g>
    </g>
    <g id="text_16">
     <!-- oc(Individuals.:0,Groups:0) -->
     <g style="fill:#262626;" transform="translate(576.2875 110.228125)scale(0.2 -0.2)">
      <use xlink:href="#LiberationSans-111"/>
      <use x="55.615234" xlink:href="#LiberationSans-99"/>
      <use x="105.615234" xlink:href="#LiberationSans-40"/>
      <use x="138.916016" xlink:href="#LiberationSans-73"/>
      <use x="166.699219" xlink:href="#LiberationSans-110"/>
      <use x="222.314453" xlink:href="#LiberationSans-100"/>
      <use x="277.929688" xlink:href="#LiberationSans-105"/>
      <use x="300.146484" xlink:href="#LiberationSans-118"/>
      <use x="350.146484" xlink:href="#LiberationSans-105"/>
      <use x="372.363281" xlink:href="#LiberationSans-100"/>
      <use x="427.978516" xlink:href="#LiberationSans-117"/>
      <use x="483.59375" xlink:href="#LiberationSans-97"/>
      <use x="539.208984" xlink:href="#LiberationSans-108"/>
      <use x="561.425781" xlink:href="#LiberationSans-115"/>
      <use x="611.425781" xlink:href="#LiberationSans-46"/>
      <use x="639.208984" xlink:href="#LiberationSans-58"/>
      <use x="666.992188" xlink:href="#LiberationSans-48"/>
      <use x="722.607422" xlink:href="#LiberationSans-44"/>
      <use x="750.390625" xlink:href="#LiberationSans-71"/>
      <use x="828.173828" xlink:href="#LiberationSans-114"/>
      <use x="861.474609" xlink:href="#LiberationSans-111"/>
      <use x="917.089844" xlink:href="#LiberationSans-117"/>
      <use x="972.705078" xlink:href="#LiberationSans-112"/>
      <use x="1028.320312" xlink:href="#LiberationSans-115"/>
      <use x="1078.320312" xlink:href="#LiberationSans-58"/>
      <use x="1106.103516" xlink:href="#LiberationSans-48"/>
      <use x="1161.71875" xlink:href="#LiberationSans-41"/>
     </g>
    </g>
    <g id="LineCollection_15">
     <path d="M 530.2875 131.871875 
L 550.2875 131.871875 
" style="fill:none;stroke:#ff0000;stroke-opacity:0.7;stroke-width:1.5;"/>
    </g>
    <g id="LineCollection_16">
     <path d="M 540.2875 141.871875 
L 540.2875 121.871875 
" style="fill:none;stroke:#ff0000;stroke-opacity:0.7;stroke-width:1.5;"/>
    </g>
    <g id="line2d_35"/>
    <g id="line2d_36">
     <defs>
      <path d="M -5 5 
L 5 -5 
M -5 -5 
L 5 5 
" id="mba0c649369" style="stroke:#ff0000;stroke-opacity:0.7;"/>
     </defs>
     <g>
      <use style="fill:#ff0000;fill-opacity:0.7;stroke:#ff0000;stroke-opacity:0.7;" x="540.2875" xlink:href="#mba0c649369" y="131.871875"/>
     </g>
    </g>
    <g id="text_17">
     <!-- outlier(Individuals.:0,Groups:0) -->
     <defs>
      <path d="M 13.484375 24.5625 
Q 13.484375 20.40625 14.328125 16.90625 
Q 15.1875 13.421875 16.96875 10.90625 
Q 18.75 8.40625 21.53125 7 
Q 24.3125 5.609375 28.21875 5.609375 
Q 33.9375 5.609375 37.375 7.90625 
Q 40.828125 10.203125 42.046875 13.71875 
L 49.75 11.53125 
Q 48.921875 9.328125 47.4375 7.109375 
Q 45.953125 4.890625 43.453125 3.09375 
Q 40.96875 1.3125 37.234375 0.15625 
Q 33.5 -0.984375 28.21875 -0.984375 
Q 16.5 -0.984375 10.375 6 
Q 4.25 12.984375 4.25 26.765625 
Q 4.25 34.1875 6.09375 39.328125 
Q 7.953125 44.484375 11.171875 47.703125 
Q 14.40625 50.921875 18.703125 52.359375 
Q 23 53.8125 27.875 53.8125 
Q 34.515625 53.8125 38.984375 51.65625 
Q 43.453125 49.515625 46.15625 45.71875 
Q 48.875 41.9375 50.015625 36.8125 
Q 51.171875 31.6875 51.171875 25.734375 
L 51.171875 24.5625 
z
M 42.09375 31.296875 
Q 41.359375 39.65625 37.84375 43.484375 
Q 34.328125 47.3125 27.734375 47.3125 
Q 25.53125 47.3125 23.109375 46.609375 
Q 20.703125 45.90625 18.65625 44.09375 
Q 16.609375 42.28125 15.1875 39.171875 
Q 13.765625 36.078125 13.578125 31.296875 
z
" id="LiberationSans-101"/>
     </defs>
     <g style="fill:#262626;" transform="translate(576.2875 138.871875)scale(0.2 -0.2)">
      <use xlink:href="#LiberationSans-111"/>
      <use x="55.615234" xlink:href="#LiberationSans-117"/>
      <use x="111.230469" xlink:href="#LiberationSans-116"/>
      <use x="139.013672" xlink:href="#LiberationSans-108"/>
      <use x="161.230469" xlink:href="#LiberationSans-105"/>
      <use x="183.447266" xlink:href="#LiberationSans-101"/>
      <use x="239.0625" xlink:href="#LiberationSans-114"/>
      <use x="272.363281" xlink:href="#LiberationSans-40"/>
      <use x="305.664062" xlink:href="#LiberationSans-73"/>
      <use x="333.447266" xlink:href="#LiberationSans-110"/>
      <use x="389.0625" xlink:href="#LiberationSans-100"/>
      <use x="444.677734" xlink:href="#LiberationSans-105"/>
      <use x="466.894531" xlink:href="#LiberationSans-118"/>
      <use x="516.894531" xlink:href="#LiberationSans-105"/>
      <use x="539.111328" xlink:href="#LiberationSans-100"/>
      <use x="594.726562" xlink:href="#LiberationSans-117"/>
      <use x="650.341797" xlink:href="#LiberationSans-97"/>
      <use x="705.957031" xlink:href="#LiberationSans-108"/>
      <use x="728.173828" xlink:href="#LiberationSans-115"/>
      <use x="778.173828" xlink:href="#LiberationSans-46"/>
      <use x="805.957031" xlink:href="#LiberationSans-58"/>
      <use x="833.740234" xlink:href="#LiberationSans-48"/>
      <use x="889.355469" xlink:href="#LiberationSans-44"/>
      <use x="917.138672" xlink:href="#LiberationSans-71"/>
      <use x="994.921875" xlink:href="#LiberationSans-114"/>
      <use x="1028.222656" xlink:href="#LiberationSans-111"/>
      <use x="1083.837891" xlink:href="#LiberationSans-117"/>
      <use x="1139.453125" xlink:href="#LiberationSans-112"/>
      <use x="1195.068359" xlink:href="#LiberationSans-115"/>
      <use x="1245.068359" xlink:href="#LiberationSans-58"/>
      <use x="1272.851562" xlink:href="#LiberationSans-48"/>
      <use x="1328.466797" xlink:href="#LiberationSans-41"/>
     </g>
    </g>
   </g>
  </g>
 </g>
 <defs>
  <clipPath id="p4f7bc6d519">
   <rect height="407.7" width="837" x="49.621875" y="20.446875"/>
  </clipPath>
 </defs>
</svg>
